HIERARCHY
ROOT Hips
{
  OFFSET 0.248187 17.9884 0.0642639
  CHANNELS 6 Xposition Yposition Zposition Zrotation Xrotation Yrotation
  JOINT LHipJoint
  {
    OFFSET 0 0 0
    CHANNELS 3 Zrotation Xrotation Yrotation
    JOINT LeftUpLeg
    {
      OFFSET 1.8 -1.4 0.085
      CHANNELS 3 Zrotation Xrotation Yrotation
      JOINT LeftLeg
      {
        OFFSET 2.215 -6 0
        CHANNELS 3 Zrotation Xrotation Yrotation
        JOINT LeftFoot
        {
          OFFSET 2.5 -6.9 0
          CHANNELS 3 Zrotation Xrotation Yrotation
          JOINT LeftToeBase
          {
            OFFSET 0.2 -0.5 1.95
            CHANNELS 3 Zrotation Xrotation Yrotation
            End Site
            {
              OFFSET 0 0 1
            }
          }
        }
      }
    }
  }
  JOINT RHipJoint
  {
    OFFSET 0 0 0
    CHANNELS 3 Zrotation Xrotation Yrotation
    JOINT RightUpLeg
    {
      OFFSET -1.8 -1.4 0.085
      CHANNELS 3 Zrotation Xrotation Yrotation
      JOINT RightLeg
      {
        OFFSET -2.215 -6 0
        CHANNELS 3 Zrotation Xrotation Yrotation
        JOINT RightFoot
        {
          OFFSET -2.5 -6.9 0
          CHANNELS 3 Zrotation Xrotation Yrotation
          JOINT RightToeBase
          {
            OFFSET -0.2 -0.5 1.95
            CHANNELS 3 Zrotation Xrotation Yrotation
            End Site
            {
              OFFSET 0 0 1
            }
          }
        }
      }
    }
  }
  JOINT LowerBack
  {
    OFFSET 0 0 0
    CHANNELS 3 Zrotation Xrotation Yrotation
    JOINT Spine
    {
      OFFSET -0.087 1.94 -0.2889
      CHANNELS 3 Zrotation Xrotation Yrotation
      JOINT Spine1
      {
        OFFSET 0 1.95 0.06
        CHANNELS 3 Zrotation Xrotation Yrotation
        JOINT Neck
        {
          OFFSET 0 0 0
          CHANNELS 3 Zrotation Xrotation Yrotation
          JOINT Neck1
          {
            OFFSET 0 1.6 0.34
            CHANNELS 3 Zrotation Xrotation Yrotation
            JOINT Head
            {
              OFFSET 0 1.667 -0.24
              CHANNELS 3 Zrotation Xrotation Yrotation
              End Site
              {
                OFFSET 0 1.686 -0.12
              }
            }
          }
        }
        JOINT LeftShoulder
        {
          OFFSET 0 0 0
          CHANNELS 3 Zrotation Xrotation Yrotation
          JOINT LeftArm
          {
            OFFSET 2.7 1.55 -0.73
            CHANNELS 3 Zrotation Xrotation Yrotation
            JOINT LeftForeArm
            {
              OFFSET 5.45 0 0
              CHANNELS 3 Zrotation Xrotation Yrotation
              JOINT LeftHand
              {
                OFFSET 3.45 0 0
                CHANNELS 3 Zrotation Xrotation Yrotation
                JOINT LeftFingerBase
                {
                  OFFSET 0 0 0
                  CHANNELS 3 Zrotation Xrotation Yrotation
                  JOINT LeftHandIndex1
                  {
                    OFFSET 0.75 0 0
                    CHANNELS 3 Zrotation Xrotation Yrotation
                    End Site
                    {
                      OFFSET 0.6 0 0
                    }
                  }
                }
                JOINT LThumb
                {
                  OFFSET 0 0 0
                  CHANNELS 3 Zrotation Xrotation Yrotation
                  End Site
                  {
                    OFFSET 0.59 0 0.59
                  }
                }
              }
            }
          }
        }
        JOINT RightShoulder
        {
          OFFSET 0 0 0
          CHANNELS 3 Zrotation Xrotation Yrotation
          JOINT RightArm
          {
            OFFSET -2.7 1.55 -0.73
            CHANNELS 3 Zrotation Xrotation Yrotation
            JOINT RightForeArm
            {
              OFFSET -5.45 0 0
              CHANNELS 3 Zrotation Xrotation Yrotation
              JOINT RightHand
              {
                OFFSET -3.45 0 0
                CHANNELS 3 Zrotation Xrotation Yrotation
                JOINT RightFingerBase
                {
                  OFFSET 0 0 0
                  CHANNELS 3 Zrotation Xrotation Yrotation
                  JOINT RightHandIndex1
                  {
                    OFFSET -0.75 0 0
                    CHANNELS 3 Zrotation Xrotation Yrotation
                    End Site
                    {
                      OFFSET -0.6 0 0
                    }
                  }
                }
                JOINT RThumb
                {
                  OFFSET 0 0 0
                  CHANNELS 3 Zrotation Xrotation Yrotation
                  End Site
                  {
                    OFFSET -0.59 0 0.59
                  }
                }
              }
            }
          }
        }
      }
    }
  }
}
MOTION
Frames:	6
Frame Time:	0.00833333
0.248319 17.9884 0.0644779 -0.00261209 0.0014583 -6.41674e-005 4.74085e-019 0 -0 -18.5828 -8.61984 1.11639 0.167009 11.3308 10.6999 -1.37655 -2.4859 -11.8778 2.96293e-015 0 3.88251e-019 4.74085e-019 0 -0 19.4803 -7.98981 -0.319983 -0.897899 6.92409 -21.4721 1.34137 1.68215 21.8839 5.80282e-015 3.88251e-019 -7.76503e-019 4.74085e-019 0 -0 0.00173601 -0.00191985 -0.00475097 -0.00352942 0.00372895 0.000274287 0.00290962 -16.0017 -0.000667027 0.00336079 20.9983 -0.00157352 -0.00303446 10.9975 0.00130129 0.341825 -8.02374e-010 3.50353 -20.8485 -26.2417 -8.0526 1.40374 27.9432 -0.168763 -1.86774 -0.292855 2.04469 1.73781e-015 -2.48481e-017 -1.98785e-016 1.74092e-015 -4.96962e-017 -1.98785e-016 1.73704e-015 -2.48481e-017 -0 -0.39831 0.0353025 -3.02665 69.3061 -41.1899 75.2907 -12.619 -4.93158 -0.00261081 -5.3897 -0.686423 -0.0651854 1.26035e-006 -3.31482e-007 -1.08373e-006 -3.18055e-015 2.38542e-015 -3.97569e-016 3.18055e-015 7.95139e-016 1.19271e-015 
0.248872 17.9885 0.0653687 -0.00261212 0.00791119 0.000179803 7.56443e-019 -1.55301e-018 -4.85314e-020 -18.6 -8.6123 1.10683 0.190209 11.3057 10.7301 -1.38254 -2.48286 -11.8938 -5.17795e-015 1.55301e-018 -1.55301e-018 7.56443e-019 -1.55301e-018 -4.85314e-020 19.4768 -7.99677 -0.319988 -0.896301 6.92212 -21.4934 1.32745 1.69032 21.9096 3.33049e-015 0 1.55301e-018 7.56443e-019 -1.55301e-018 -4.85314e-020 0.00830967 -0.0117428 -0.00475097 -0.0187807 0.0208226 0.00123364 0.0156539 -16.0093 -0.00368018 0.0181156 20.9907 -0.00856321 -0.0164795 10.9869 0.00667994 0.341825 -8.02374e-010 3.50353 -20.8403 -26.2728 -8.01327 1.46961 27.9235 -0.315513 -1.89728 -0.306333 2.12944 -5.61606e-015 0 -1.98785e-016 -5.61567e-015 -4.96962e-017 -3.97569e-016 -5.61644e-015 0 -0 -0.39831 0.0353025 -3.02665 69.3218 -41.1796 75.3019 -12.6253 -4.93158 -0.00261081 -5.3897 -0.686423 -0.0651854 1.26035e-006 -3.31482e-007 -1.08373e-006 -3.18055e-015 2.38542e-015 1.19271e-015 5.51738e-033 -7.95139e-016 3.97569e-016 
0.249428 17.9887 0.0662649 -0.00261222 0.0144632 0.000503876 -8.96457e-020 -6.21202e-018 -0 -18.6175 -8.60465 1.09713 0.213742 11.2801 10.7606 -1.38873 -2.47974 -11.9099 4.38915e-015 -3.10601e-018 -0 -8.96457e-020 -6.21202e-018 -0 19.4732 -8.00392 -0.319994 -0.8947 6.92023 -21.5151 1.31327 1.69863 21.9359 1.84347e-015 6.21202e-018 -0 -8.96457e-020 -6.21202e-018 -0 0.0148236 -0.0219099 -0.00475097 -0.0342138 0.0382648 0.00217094 0.0285743 -16.017 -0.00674874 0.0330784 20.983 -0.0156635 -0.0301318 10.9761 0.012086 0.341825 -8.02374e-010 3.50353 -20.8319 -26.3042 -7.97355 1.53608 27.903 -0.463877 -1.92704 -0.319991 2.21534 6.09477e-015 8.69683e-017 -1.98785e-016 2.91344e-015 0 -0 6.09438e-015 7.45443e-017 -0 -0.39831 0.0353025 -3.02665 69.3378 -41.1694 75.3131 -12.6317 -4.93158 -0.00261081 -5.3897 -0.686423 -0.0651854 1.26035e-006 -3.31482e-007 -1.08373e-006 -3.18055e-015 0 -7.95139e-016 3.18055e-015 7.95139e-016 -1.59028e-015 
0.249942 17.9888 0.0671002 -0.00261207 0.0199246 -5.31775e-005 1.25087e-019 1.2424e-017 -6.06643e-021 -18.6321 -8.59818 1.08898 0.233911 11.2591 10.7872 -1.3926 -2.47744 -11.9245 -2.63378e-015 0 6.21202e-018 1.25087e-019 1.2424e-017 -6.06643e-021 19.4706 -8.00906 -0.319998 -0.893127 6.91746 -21.5322 1.3019 1.70543 21.9566 4.59762e-015 0 3.10601e-018 1.25087e-019 1.2424e-017 -6.06643e-021 0.0219942 -0.0282917 -0.00475097 -0.0476531 0.0518738 0.00335076 0.0395472 -16.0235 -0.0092104 0.0457295 20.9764 -0.0215384 -0.0414798 10.9668 0.017186 0.341825 -8.02374e-010 3.50353 -20.8245 -26.3318 -7.93796 1.59461 27.8891 -0.593863 -1.95388 -0.331631 2.2885 -8.54153e-015 5.59082e-017 -1.98785e-016 -2.181e-015 1.05604e-016 -1.98785e-016 -8.54172e-015 4.34841e-017 -0 -0.39831 0.0353025 -3.02665 69.3508 -41.1595 75.3237 -12.6367 -4.93158 -0.00261081 -5.3897 -0.686423 -0.0651854 1.26035e-006 -3.31482e-007 -1.08373e-006 -3.18055e-015 2.38542e-015 -3.97569e-016 3.18055e-015 0 -3.97569e-016 
0.250362 17.9888 0.0678078 -0.0026111 0.0230527 -0.00246201 1.08627e-019 0 7.76503e-019 -18.6408 -8.59416 1.0841 0.246961 11.2479 10.8053 -1.39155 -2.47694 -11.9359 4.10413e-015 0 6.21202e-018 1.08627e-019 0 7.76503e-019 19.4699 -8.00982 -0.320533 -0.891621 6.91267 -21.5396 1.29662 1.70899 21.9652 8.23094e-016 0 -4.65902e-018 1.08627e-019 0 7.76503e-019 0.0304955 -0.0266694 -0.00411999 -0.0568671 0.0573996 0.00503999 0.0464411 -16.0276 -0.0104034 0.0535416 20.9724 -0.0248505 -0.0479572 10.9604 0.0216328 0.341825 -8.02374e-010 3.50353 -20.8194 -26.3517 -7.91018 1.63756 27.8896 -0.687239 -1.97536 -0.339129 2.33572 8.00671e-015 1.49089e-016 -3.97569e-016 1.64531e-015 1.18028e-016 -5.96354e-016 8.00662e-015 1.36664e-016 -1.98785e-016 -0.39831 0.0353025 -3.02648 69.3577 -41.1503 75.3331 -12.6388 -4.93158 -0.00261081 -5.3897 -0.686423 -0.0651854 1.26035e-006 -3.31482e-007 -1.08373e-006 -3.18055e-015 2.38542e-015 1.19271e-015 -5.51738e-033 -7.95139e-016 -3.97569e-016 
0.25059 17.9888 0.0683557 -0.00260923 0.022509 -0.00729438 8.81148e-019 6.21202e-018 -0 -18.6411 -8.59323 1.0839 0.250579 11.2508 10.8118 -1.38364 -2.47992 -11.9431 3.49218e-015 -6.21202e-018 -0 8.81148e-019 6.21202e-018 -0 19.4724 -8.00226 -0.323504 -0.890332 6.90239 -21.5331 1.30179 1.70738 21.9555 9.55563e-017 3.10601e-018 -1.45594e-019 8.81148e-019 6.21202e-018 -0 0.0399934 -0.0138404 -0.00140101 -0.0600359 0.0519306 0.00739147 0.0481842 -16.0282 -0.0100438 0.055263 20.9718 -0.0249798 -0.0476021 10.9557 0.0250679 0.341825 -8.02374e-010 3.50353 -20.8184 -26.3672 -7.87927 1.67404 27.9158 -0.761475 -2.00045 -0.342687 2.36148 -1.39479e-015 4.96962e-017 -3.97569e-016 -1.39596e-015 6.21202e-018 -1.98785e-016 -1.39499e-015 3.72721e-017 -1.98785e-016 -0.39831 0.0353025 -3.02593 69.3569 -41.1421 75.3414 -12.6376 -4.93158 -0.00261081 -5.3897 -0.686423 -0.0651854 1.26035e-006 -3.31482e-007 -1.08373e-006 -3.18055e-015 7.95139e-016 7.95139e-016 3.18055e-015 -7.95139e-016 -1.59028e-015 
